# xmcd
#
# Track frame offsets:
#	150
#	21966
#	42951
#	64903
#	85327
#	109418
#	129115
#	146890
#	167260
#	191827
#	213372
#
# Disc length: 3073 seconds
#
# Revision: 1
# Processed by: cddbd v1.4PL0 Copyright (c) Steve Scherf et al.
# Submitted via: audiograbber 1.81.02
#
DISCID=9c0bff0b
DTITLE=Wendell Brown - Make It Good For Ya
DYEAR=1998
DGENRE=R&B
TTITLE0=Sing A Song For You
TTITLE1=Wrong Place, Wrong Time
TTITLE2=Tears
TTITLE3=This Time
TTITLE4=Maybe Tomorrow
TTITLE5=In The Mood
TTITLE6=You're The One
TTITLE7=Make It Good For You
TTITLE8=Losing Game
TTITLE9=Mothers Keep It Real
TTITLE10=Crazy
EXTD=
EXTT0=
EXTT1=
EXTT2=
EXTT3=
EXTT4=
EXTT5=
EXTT6=
EXTT7=
EXTT8=
EXTT9=
EXTT10=
PLAYORDER=
